Coordinates
version=1
nRows=27
nColumns=19
inDegrees=yes

Units are S.I. units (second, meters, Newtons, ...)
If the header above contains a line with 'inDegrees', this indicates whether rotational values are in degrees (yes) or radians (no).

endheader
time	pelvis_tilt	pelvis_list	pelvis_rotation	pelvis_tx	pelvis_ty	pelvis_tz	hip_flexion_r	hip_adduction_r	hip_rotation_r	knee_angle_r	knee_angle_r_beta	ankle_angle_r	hip_flexion_l	hip_adduction_l	hip_rotation_l	knee_angle_l	knee_angle_l_beta	ankle_angle_l
     13.74000000	      5.06377154	      5.51100343	      2.08027289	      2.00197647	      0.86482344	      1.00651803	    -24.49436268	     -8.94951878	    -17.13822794	     59.51086790	      1.03866059	    -13.98632101	     21.50860138	     10.19794162	     -0.94682509	     17.99778458	      0.31412060	     -7.88628443
     13.74666667	      5.73848451	      5.98999879	      2.70710446	      2.00165454	      0.86199636	      1.00543853	    -23.56157285	     -9.40904941	    -16.57863105	     64.16304848	      1.11985645	    -13.64893574	     20.74085163	     10.88635356	     -2.11051031	     20.01544074	      0.34933534	     -6.95414509
     13.75333333	      5.83858262	      6.15126405	      3.39560167	      2.00111132	      0.85836620	      1.00447381	    -21.79487600	     -9.53361986	    -15.91466541	     68.85319213	      1.20171490	    -13.37507524	     20.71115940	     11.20484534	     -3.10598417	     22.60106174	      0.39446294	     -5.54108517
     13.76000000	      6.62409876	      6.69571886	      4.20608484	      2.00056626	      0.85507097	      1.00355118	    -20.97987676	    -10.05615784	    -15.90027002	     73.19787302	      1.27754389	    -13.12047389	     19.70680007	     11.92427402	     -3.72490816	     25.11615041	      0.43835952	     -3.71233402
     13.76666667	      6.40830649	      6.66330254	      5.10815124	      1.99960619	      0.85056972	      1.00247383	    -18.73702882	    -10.06195320	    -15.59436829	     77.65182568	      1.35528003	    -12.81854700	     20.04358289	     12.07217102	     -4.05143632	     28.29966075	      0.49392226	     -1.51326546
     13.77333333	      7.14358842	      7.18598066	      5.97563678	      1.99861492	      0.84692707	      1.00158047	    -17.75969942	    -10.72051992	    -15.83925597	     81.69773911	      1.42589454	    -12.44802151	     18.93745672	     12.76725638	     -4.01536259	     30.96794641	      0.54049263	      1.00377274
     13.78000000	      7.55613482	      7.52176148	      6.89759479	      1.99731770	      0.84295162	      1.00058814	    -16.29127937	    -11.28675781	    -16.05697339	     85.63570303	      1.49462498	    -11.94199272	     18.20301300	     13.29087726	     -3.69010565	     33.80320248	      0.58997718	      3.67108591
     13.78666667	      6.84535204	      7.30876328	      7.93219413	      1.99567396	      0.83798308	      0.99936773	    -13.23822745	    -11.46080396	    -16.00958314	     89.60710929	      1.56393909	    -11.36691504	     18.82522307	     13.41834848	     -2.98698773	     36.88518985	      0.64376801	      6.45192784
     13.79333333	      6.88758339	      7.53756742	      8.70799225	      1.99389848	      0.83413569	      0.99842769	    -11.04765277	    -12.19191356	    -15.99064327	     93.20323256	      1.62670328	    -10.73248800	     18.25436723	     13.87734197	     -2.28143886	     39.34200622	      0.68664754	      9.17617896
     13.80000000	      7.46795033	      7.97280456	      9.28820325	      1.99195654	      0.83129978	      0.99767850	     -9.39489051	    -13.16239691	    -15.87635641	     96.42766696	      1.68298028	    -10.10058373	     16.81778774	     14.42066019	     -1.52541202	     41.32191742	      0.72120351	     11.82951833
     13.80666667	      6.89027605	      8.04786446	      9.83256846	      1.98977325	      0.82780702	      0.99691392	     -6.06361679	    -13.97000147	    -15.33632028	     99.64654234	      1.73916025	     -9.43444500	     16.67455245	     14.72468376	     -0.76217739	     43.23140882	      0.75453042	     14.11484382
     13.81333333	      6.85067147	      8.16762429	     10.06463635	      1.98751487	      0.82550639	      0.99645964	     -3.14568444	    -14.70900669	    -14.47801973	    102.41355847	      1.78745379	     -8.82535199	     15.71505243	     14.87026882	     -0.17583890	     44.66735181	      0.77959236	     16.24494404
     13.82000000	      6.87502508	      8.38364871	     10.12615705	      1.98526551	      0.82393928	      0.99622831	     -0.14621152	    -15.51071624	    -13.38594045	    104.81573075	      1.82937961	     -8.32341430	     14.43218667	     15.02101737	      0.30067229	     45.61286969	      0.79609476	     18.06436450
     13.82666667	      7.04548209	      8.62271367	      9.95995698	      1.98302549	      0.82319555	      0.99623077	      2.85612675	    -16.23712388	    -12.03290569	    106.81040526	      1.86419325	     -7.89085128	     12.75434821	     15.08713607	      0.62448080	     46.05438343	      0.80380063	     19.54979615
     13.83333333	      7.14122061	      8.75175357	      9.69608490	      1.98092509	      0.82302359	      0.99632379	      6.06596442	    -16.69879092	    -10.51477057	    108.37490330	      1.89149889	     -7.53723687	     10.98044050	     14.99636301	      0.84739161	     46.13381678	      0.80518700	     20.76397404
     13.84000000	      7.20060445	      8.77792030	      9.37039874	      1.97902605	      0.82342622	      0.99640949	      9.33835612	    -16.94051211	     -8.97779691	    109.47060804	      1.91062254	     -7.27611776	      9.05121495	     14.78780797	      1.03615343	     45.83336187	      0.79994307	     21.69205158
     13.84666667	      7.23198901	      8.76130505	      8.98288008	      1.97731502	      0.82433582	      0.99655156	     12.61193376	    -16.99301970	     -7.43320108	    110.13015587	      1.92213383	     -7.05589420	      6.95270729	     14.51365352	      1.15254685	     45.13247406	      0.78771027	     22.28817117
     13.85333333	      7.24439820	      8.66239860	      8.63630950	      1.97593835	      0.82579596	      0.99649760	     15.72927735	    -16.87043563	     -6.07686639	    110.27905118	      1.92473254	     -6.83965987	      4.66543994	     14.17993542	      1.32236632	     44.05998647	      0.76899183	     22.61459914
     13.86000000	      7.27952923	      8.51760092	      8.32274776	      1.97485678	      0.82776498	      0.99626095	     18.60910783	    -16.64729991	     -4.92523408	    109.95906055	      1.91914765	     -6.61079700	      2.16099679	     13.81763146	      1.54223988	     42.63007736	      0.74403521	     22.61081883
     13.86666667	      7.32085812	      8.32118169	      8.10105883	      1.97417335	      0.83021967	      0.99573759	     21.18742186	    -16.38513828	     -4.07300041	    109.16047561	      1.90520971	     -6.38925906	     -0.53989834	     13.41878800	      1.86384515	     40.84902748	      0.71295003	     22.28952000
     13.87333333	      7.59867584	      8.08270646	      7.99487640	      1.97382183	      0.83331855	      0.99491637	     23.13624157	    -16.10279365	     -3.60017192	    107.87731972	      1.88281442	     -6.05411967	     -3.68483425	     12.96251202	      2.41523843	     38.71717686	      0.67574221	     21.59484516
     13.88000000	      7.94209993	      7.69573287	      8.17233801	      1.97382359	      0.83692880	      0.99362569	     24.58019427	    -15.83008371	     -3.70410317	    106.09740730	      1.85174909	     -5.70406533	     -6.99763282	     12.28719336	      3.20444252	     36.37118027	      0.63479685	     20.54643066
     13.88666667	      8.03300803	      7.28490592	      8.39113719	      1.97410071	      0.84048213	      0.99214504	     26.09045178	    -15.61667034	     -3.94217822	    104.01461284	      1.81539746	     -5.35947924	    -10.06577350	     11.58878384	      3.94952138	     33.87061068	      0.59115368	     19.10878593
     13.89333333	      8.08374720	      6.81630869	      8.78368919	      1.97469862	      0.84424110	      0.99037097	     27.29860242	    -15.50066077	     -4.55852929	    101.56088515	      1.77257184	     -4.95759469	    -13.11177592	     10.75290726	      4.79419022	     31.23163445	      0.54509485	     17.21305397
     13.90000000	      8.15887007	      6.19541638	      9.35447407	      1.97559517	      0.84822446	      0.98839184	     28.14074338	    -15.35529171	     -5.59842372	     98.71977937	      1.72298519	     -4.61916922	    -16.11741844	      9.64333230	      5.67081900	     28.55971546	      0.49846107	     14.96847392
     13.90666667	      8.12770535	      5.47119156	     10.09839496	      1.97667783	      0.85218674	      0.98621467	     28.81243284	    -15.26622107	     -6.99827433	     95.56022139	      1.66784050	     -4.32019276	    -18.85043213	      8.31822007	      6.47866659	     25.99339693	      0.45367036	     12.37236540
     13.91333333	      7.90423491	      4.74735081	     10.79331172	      1.97794197	      0.85594948	      0.98414776	     29.55664471	    -15.17008221	     -8.40730145	     92.16989600	      1.60866816	     -4.13268716	    -21.26075479	      6.98947813	      7.11099751	     23.44846984	      0.40925300	      9.37711249
